<svg width="20" height="12" viewBox="0 0 20 12" fill="none" xmlns="http://www.w3.org/2000/svg" xmlns:xlink="http://www.w3.org/1999/xlink">
<path d="M3.131,0.869C2.507,0.244 1.493,0.244 0.869,0.869C0.244,1.493 0.244,2.507 0.869,3.131L3.131,0.869ZM10,10L8.869,11.131C9.493,11.756 10.507,11.756 11.131,11.131L10,10ZM19.131,3.131C19.756,2.507 19.756,1.493 19.131,0.869C18.507,0.244 17.493,0.244 16.869,0.869L19.131,3.131ZM0.869,3.131L8.869,11.131L11.131,8.869L3.131,0.869L0.869,3.131ZM11.131,11.131L19.131,3.131L16.869,0.869L8.869,8.869L11.131,11.131Z" fill="#1E1E1E"/>
</svg>
