<svg width="34" height="42" viewBox="0 0 34 42" fill="none" xmlns="http://www.w3.org/2000/svg" xmlns:xlink="http://www.w3.org/1999/xlink">
<path d="M32.188,6.415C33.522,4.655 33.176,2.146 31.415,0.812C29.655,-0.522 27.146,-0.176 25.812,1.585L32.188,6.415ZM0.812,34.585C-0.522,36.345 -0.176,38.854 1.585,40.188C3.345,41.522 5.854,41.176 7.188,39.415L0.812,34.585ZM7.188,1.585C5.854,-0.176 3.345,-0.522 1.585,0.812C-0.176,2.146 -0.522,4.655 0.812,6.415L7.188,1.585ZM25.812,39.415C27.146,41.176 29.655,41.522 31.415,40.188C33.176,38.854 33.522,36.345 32.188,34.585L25.812,39.415ZM25.812,1.585L0.812,34.585L7.188,39.415L32.188,6.415L25.812,1.585ZM0.812,6.415L25.812,39.415L32.188,34.585L7.188,1.585L0.812,6.415Z" fill="#1E1E1E"/>
</svg>
