<svg width="34" height="42" viewBox="0 0 34 42" fill="none" xmlns="http://www.w3.org/2000/svg" xmlns:xlink="http://www.w3.org/1999/xlink">
<path d="M32.688,6.915C34.022,5.155 33.676,2.646 31.915,1.312C30.155,-0.022 27.646,0.324 26.312,2.085L32.688,6.915ZM1.312,35.085C-0.022,36.845 0.324,39.354 2.085,40.688C3.845,42.022 6.354,41.676 7.688,39.915L1.312,35.085ZM7.688,2.085C6.354,0.324 3.845,-0.022 2.085,1.312C0.324,2.646 -0.022,5.155 1.312,6.915L7.688,2.085ZM26.312,39.915C27.646,41.676 30.155,42.022 31.915,40.688C33.676,39.354 34.022,36.845 32.688,35.085L26.312,39.915ZM26.312,2.085L1.312,35.085L7.688,39.915L32.688,6.915L26.312,2.085ZM1.312,6.915L26.312,39.915L32.688,35.085L7.688,2.085L1.312,6.915Z" fill="#1E1E1E"/>
</svg>
