<svg width="78" height="68" viewBox="0 0 78 68" fill="none" xmlns="http://www.w3.org/2000/svg" xmlns:xlink="http://www.w3.org/1999/xlink">
<path d="M67.467,8.983L64.674,11.846L64.675,11.847L67.467,8.983ZM54.5,3.744L54.5,7.744L54.5,3.744ZM41.534,8.983L44.326,11.847L44.327,11.846L41.534,8.983ZM38,12.428L35.208,15.292C36.761,16.806 39.239,16.806 40.793,15.292L38,12.428ZM34.467,8.983L31.675,11.847L31.675,11.847L34.467,8.983ZM8.534,34.267L5.741,37.131L5.741,37.131L8.534,34.267ZM38,62.997L35.208,65.861C36.761,67.376 39.239,67.376 40.793,65.861L38,62.997ZM67.467,34.267L64.675,31.403L64.675,31.403L67.467,34.267ZM70.26,6.119C68.182,4.092 65.719,2.489 63.016,1.397L60.02,8.814C61.767,9.52 63.347,10.552 64.674,11.846L70.26,6.119ZM63.016,1.397C60.314,0.305 57.42,-0.256 54.5,-0.256L54.5,7.744C56.397,7.744 58.273,8.109 60.02,8.814L63.016,1.397ZM54.5,-0.256C51.58,-0.256 48.687,0.305 45.984,1.397L48.981,8.814C50.728,8.109 52.604,7.744 54.5,7.744L54.5,-0.256ZM45.984,1.397C43.281,2.489 40.819,4.092 38.74,6.119L44.327,11.846C45.653,10.552 47.234,9.52 48.981,8.814L45.984,1.397ZM38.741,6.119L35.208,9.564L40.793,15.292L44.326,11.847L38.741,6.119ZM40.793,9.564L37.259,6.119L31.675,11.847L35.208,15.292L40.793,9.564ZM37.259,6.119C33.063,2.027 27.392,-0.254 21.5,-0.254L21.5,7.746C25.335,7.746 28.993,9.232 31.675,11.847L37.259,6.119ZM21.5,-0.254C15.608,-0.254 9.938,2.027 5.741,6.119L11.326,11.847C14.007,9.232 17.665,7.746 21.5,7.746L21.5,-0.254ZM5.741,6.119C1.541,10.213 -0.837,15.789 -0.837,21.625L7.163,21.625C7.163,17.977 8.648,14.458 11.326,11.847L5.741,6.119ZM-0.837,21.625C-0.837,27.461 1.541,33.037 5.741,37.131L11.326,31.403C8.648,28.792 7.163,25.273 7.163,21.625L-0.837,21.625ZM70.259,37.132C72.338,35.105 73.993,32.694 75.125,30.032L67.762,26.903C67.049,28.579 66.002,30.11 64.675,31.403L70.259,37.132ZM75.125,30.032C76.256,27.37 76.84,24.513 76.84,21.625L68.84,21.625C68.84,23.433 68.474,25.226 67.762,26.903L75.125,30.032ZM76.84,21.625C76.84,18.737 76.256,15.88 75.125,13.218L67.762,16.347C68.474,18.023 68.84,19.817 68.84,21.625L76.84,21.625ZM75.125,13.218C73.993,10.556 72.338,8.144 70.259,6.118L64.675,11.847C66.002,13.14 67.049,14.67 67.762,16.347L75.125,13.218ZM5.741,37.131L35.208,65.861L40.793,60.133L11.326,31.403L5.741,37.131ZM40.793,65.861L70.259,37.131L64.675,31.403L35.208,60.133L40.793,65.861Z" fill="#FFFFFF"/>
</svg>
