<svg width="64" height="96" viewBox="0 0 64 96" fill="none" xmlns="http://www.w3.org/2000/svg" xmlns:xlink="http://www.w3.org/1999/xlink">
<path d="M32,4L32,0L32,4ZM64,40C64,37.791 62.209,36 60,36C57.791,36 56,37.791 56,40L64,40ZM60,48L64,48L64,48L60,48ZM32,76L32,72L32,76ZM4,48L0,48L0,48L4,48ZM8,40C8,37.791 6.209,36 4,36C1.791,36 0,37.791 0,40L8,40ZM28,92C28,94.209 29.791,96 32,96C34.209,96 36,94.209 36,92L28,92ZM16,88C13.791,88 12,89.791 12,92C12,94.209 13.791,96 16,96L16,88ZM48,96C50.209,96 52,94.209 52,92C52,89.791 50.209,88 48,88L48,96ZM32,0C27.757,0 23.687,1.686 20.686,4.686L26.343,10.343C27.843,8.843 29.878,8 32,8L32,0ZM20.686,4.686C17.686,7.687 16,11.757 16,16L24,16C24,13.878 24.843,11.843 26.343,10.343L20.686,4.686ZM16,16L16,48L24,48L24,16L16,16ZM16,48C16,52.243 17.686,56.313 20.686,59.314L26.343,53.657C24.843,52.157 24,50.122 24,48L16,48ZM20.686,59.314C23.687,62.314 27.757,64 32,64L32,56C29.878,56 27.843,55.157 26.343,53.657L20.686,59.314ZM32,64C36.243,64 40.313,62.314 43.314,59.314L37.657,53.657C36.157,55.157 34.122,56 32,56L32,64ZM43.314,59.314C46.314,56.313 48,52.243 48,48L40,48C40,50.122 39.157,52.157 37.657,53.657L43.314,59.314ZM48,48L48,16L40,16L40,48L48,48ZM48,16C48,11.757 46.314,7.687 43.314,4.686L37.657,10.343C39.157,11.843 40,13.878 40,16L48,16ZM43.314,4.686C40.313,1.686 36.243,0 32,0L32,8C34.122,8 36.157,8.843 37.657,10.343L43.314,4.686ZM56,40L56,48L64,48L64,40L56,40ZM56,48C56,54.365 53.471,60.47 48.971,64.971L54.627,70.627C60.629,64.626 64,56.487 64,48L56,48ZM48.971,64.971C44.47,69.471 38.365,72 32,72L32,80C40.487,80 48.626,76.629 54.627,70.627L48.971,64.971ZM32,72C25.635,72 19.53,69.471 15.029,64.971L9.373,70.627C15.374,76.629 23.513,80 32,80L32,72ZM15.029,64.971C10.529,60.47 8,54.365 8,48L0,48C0,56.487 3.371,64.626 9.373,70.627L15.029,64.971ZM8,48L8,40L0,40L0,48L8,48ZM28,76L28,92L36,92L36,76L28,76ZM16,96L48,96L48,88L16,88L16,96Z" fill="#1E1E1E"/>
</svg>
