<svg width="58" height="52" viewBox="0 0 58 52" fill="none" xmlns="http://www.w3.org/2000/svg" xmlns:xlink="http://www.w3.org/1999/xlink">
<path d="M48.626,8.757L45.797,11.585L45.798,11.586L48.626,8.757ZM39.55,4.996L39.55,8.996L39.55,4.996ZM30.473,8.757L33.301,11.585L33.302,11.585L30.473,8.757ZM28,11.23L25.171,14.059C26.733,15.621 29.266,15.621 30.828,14.059L28,11.23ZM25.526,8.757L22.698,11.585L22.698,11.585L25.526,8.757ZM7.373,26.91L4.545,29.738L4.545,29.738L7.373,26.91ZM28,47.537L25.171,50.365C25.921,51.115 26.939,51.537 28,51.537C29.06,51.537 30.078,51.115 30.828,50.365L28,47.537ZM48.626,26.91L45.798,24.081L45.798,24.082L48.626,26.91ZM51.455,5.929C49.892,4.365 48.036,3.124 45.993,2.278L42.931,9.669C44.003,10.113 44.977,10.764 45.797,11.585L51.455,5.929ZM45.993,2.278C43.95,1.432 41.761,0.996 39.55,0.996L39.55,8.996C40.71,8.996 41.859,9.224 42.931,9.669L45.993,2.278ZM39.55,0.996C37.338,0.996 35.149,1.432 33.106,2.278L36.168,9.669C37.24,9.224 38.389,8.996 39.55,8.996L39.55,0.996ZM33.106,2.278C31.063,3.124 29.207,4.365 27.644,5.929L33.302,11.585C34.122,10.764 35.096,10.113 36.168,9.669L33.106,2.278ZM27.644,5.928L25.171,8.402L30.828,14.059L33.301,11.585L27.644,5.928ZM30.828,8.402L28.355,5.928L22.698,11.585L25.171,14.059L30.828,8.402ZM28.355,5.928C25.197,2.771 20.915,0.997 16.45,0.997L16.45,8.997C18.793,8.997 21.041,9.928 22.698,11.585L28.355,5.928ZM16.45,0.997C11.984,0.997 7.702,2.771 4.545,5.928L10.201,11.585C11.859,9.928 14.106,8.997 16.45,8.997L16.45,0.997ZM4.545,5.928C1.387,9.086 -0.387,13.368 -0.387,17.833L7.613,17.833C7.613,15.49 8.544,13.242 10.201,11.585L4.545,5.928ZM-0.387,17.833C-0.387,22.299 1.387,26.581 4.545,29.738L10.201,24.082C8.544,22.425 7.613,20.177 7.613,17.833L-0.387,17.833ZM51.454,29.739C53.018,28.176 54.259,26.32 55.105,24.277L47.714,21.215C47.27,22.287 46.619,23.261 45.798,24.081L51.454,29.739ZM55.105,24.277C55.951,22.234 56.387,20.045 56.387,17.833L48.387,17.833C48.387,18.994 48.159,20.143 47.714,21.215L55.105,24.277ZM56.387,17.833C56.387,15.622 55.951,13.433 55.105,11.39L47.714,14.452C48.159,15.524 48.387,16.673 48.387,17.833L56.387,17.833ZM55.105,11.39C54.259,9.347 53.018,7.491 51.454,5.928L45.798,11.586C46.619,12.406 47.27,13.38 47.714,14.452L55.105,11.39ZM4.545,29.738L25.171,50.365L30.828,44.708L10.201,24.082L4.545,29.738ZM30.828,50.365L51.455,29.738L45.798,24.082L25.171,44.708L30.828,50.365Z" fill="#FF0606"/>
</svg>
