<svg width="34" height="42" viewBox="0 0 34 42" fill="none" xmlns="http://www.w3.org/2000/svg" xmlns:xlink="http://www.w3.org/1999/xlink">
<path d="M32.112,7.051C33.436,5.283 33.076,2.776 31.308,1.452C29.539,0.128 27.032,0.488 25.708,2.256L32.112,7.051ZM1.353,34.78C0.029,36.548 0.389,39.055 2.157,40.38C3.925,41.704 6.432,41.344 7.756,39.575L1.353,34.78ZM7.756,2.256C6.432,0.488 3.925,0.128 2.157,1.452C0.389,2.776 0.029,5.283 1.353,7.051L7.756,2.256ZM25.708,39.575C27.032,41.344 29.539,41.704 31.308,40.38C33.076,39.055 33.436,36.548 32.112,34.78L25.708,39.575ZM25.708,2.256L1.353,34.78L7.756,39.575L32.112,7.051L25.708,2.256ZM1.353,7.051L25.708,39.575L32.112,34.78L7.756,2.256L1.353,7.051Z" fill="#1E1E1E"/>
</svg>
