<svg width="80" height="68" viewBox="0 0 80 68" fill="none" xmlns="http://www.w3.org/2000/svg" xmlns:xlink="http://www.w3.org/1999/xlink">
<path d="M70.33,8.982L67.574,11.882L67.576,11.883L70.33,8.982ZM57.02,3.744L57.02,7.744L57.02,3.744ZM43.71,8.982L46.465,11.883L46.466,11.882L43.71,8.982ZM40.084,12.427L37.329,15.328C38.873,16.794 41.294,16.794 42.838,15.328L40.084,12.427ZM36.457,8.982L33.702,11.883L33.702,11.883L36.457,8.982ZM9.837,34.267L7.082,37.168L7.082,37.168L9.837,34.267ZM40.084,62.997L37.329,65.898C38.873,67.364 41.294,67.364 42.838,65.898L40.084,62.997ZM70.33,34.267L67.576,31.367L67.575,31.367L70.33,34.267ZM73.085,6.083C70.958,4.061 68.443,2.467 65.689,1.383L62.759,8.828C64.572,9.541 66.207,10.582 67.574,11.882L73.085,6.083ZM65.689,1.383C62.935,0.3 59.99,-0.256 57.02,-0.256L57.02,7.744C58.994,7.744 60.945,8.114 62.759,8.828L65.689,1.383ZM57.02,-0.256C54.05,-0.256 51.105,0.3 48.352,1.383L51.281,8.828C53.095,8.114 55.046,7.744 57.02,7.744L57.02,-0.256ZM48.352,1.383C45.598,2.467 43.082,4.061 40.955,6.083L46.466,11.882C47.833,10.582 49.468,9.541 51.281,8.828L48.352,1.383ZM40.956,6.082L37.329,9.527L42.838,15.328L46.465,11.883L40.956,6.082ZM42.838,9.527L39.211,6.082L33.702,11.883L37.329,15.328L42.838,9.527ZM39.211,6.082C34.917,2.003 29.135,-0.254 23.147,-0.254L23.147,7.746C27.143,7.746 30.936,9.255 33.702,11.883L39.211,6.082ZM23.147,-0.254C17.158,-0.254 11.376,2.003 7.082,6.082L12.592,11.883C15.358,9.255 19.151,7.746 23.147,7.746L23.147,-0.254ZM7.082,6.082C2.781,10.168 0.324,15.754 0.324,21.625L8.324,21.625C8.324,18.012 9.833,14.503 12.592,11.883L7.082,6.082ZM0.324,21.625C0.324,27.496 2.781,33.082 7.082,37.168L12.592,31.367C9.833,28.747 8.324,25.238 8.324,21.625L0.324,21.625ZM73.084,37.168C75.213,35.147 76.914,32.736 78.078,30.067L70.745,26.868C70.017,28.537 68.944,30.068 67.576,31.367L73.084,37.168ZM78.078,30.067C79.242,27.397 79.845,24.528 79.845,21.625L71.845,21.625C71.845,23.418 71.473,25.199 70.745,26.868L78.078,30.067ZM79.845,21.625C79.845,18.722 79.242,15.853 78.078,13.183L70.745,16.382C71.473,18.051 71.845,19.832 71.845,21.625L79.845,21.625ZM78.078,13.183C76.914,10.514 75.213,8.103 73.084,6.082L67.576,11.883C68.944,13.182 70.017,14.712 70.745,16.382L78.078,13.183ZM7.082,37.168L37.329,65.898L42.838,60.097L12.592,31.367L7.082,37.168ZM42.838,65.898L73.085,37.168L67.575,31.367L37.329,60.097L42.838,65.898Z" fill="#FFFFFF"/>
</svg>
