<svg width="46" height="44" viewBox="0 0 46 44" fill="none" xmlns="http://www.w3.org/2000/svg" xmlns:xlink="http://www.w3.org/1999/xlink">
<path d="M22,2L24.242,0.893C23.821,0.04 22.952,-0.5 22,-0.5C21.048,-0.5 20.179,0.04 19.758,0.893L22,2ZM28.18,14.52L25.938,15.627C26.302,16.364 27.005,16.875 27.818,16.994L28.18,14.52ZM42,16.54L43.744,18.331C44.426,17.667 44.672,16.674 44.378,15.769C44.085,14.864 43.303,14.204 42.362,14.066L42,16.54ZM32,26.28L30.256,24.489C29.666,25.063 29.397,25.891 29.536,26.703L32,26.28ZM34.36,40.04L33.196,42.253C34.039,42.696 35.059,42.622 35.829,42.063C36.599,41.503 36.985,40.555 36.824,39.617L34.36,40.04ZM22,33.54L23.164,31.327C22.435,30.944 21.565,30.944 20.836,31.327L22,33.54ZM9.64,40.04L7.176,39.617C7.015,40.555 7.401,41.503 8.171,42.063C8.941,42.622 9.961,42.696 10.804,42.253L9.64,40.04ZM12,26.28L14.464,26.703C14.603,25.891 14.334,25.063 13.744,24.489L12,26.28ZM2,16.54L1.638,14.066C0.697,14.204 -0.085,14.864 -0.378,15.769C-0.672,16.674 -0.426,17.667 0.256,18.331L2,16.54ZM15.82,14.52L16.182,16.994C16.995,16.875 17.698,16.364 18.062,15.627L15.82,14.52ZM19.758,3.107L25.938,15.627L30.422,13.413L24.242,0.893L19.758,3.107ZM27.818,16.994L41.638,19.014L42.362,14.066L28.542,12.046L27.818,16.994ZM40.256,14.749L30.256,24.489L33.744,28.071L43.744,18.331L40.256,14.749ZM29.536,26.703L31.896,40.463L36.824,39.617L34.464,25.857L29.536,26.703ZM35.524,37.827L23.164,31.327L20.836,35.753L33.196,42.253L35.524,37.827ZM20.836,31.327L8.476,37.827L10.804,42.253L23.164,35.753L20.836,31.327ZM12.104,40.463L14.464,26.703L9.536,25.857L7.176,39.617L12.104,40.463ZM13.744,24.489L3.744,14.749L0.256,18.331L10.256,28.071L13.744,24.489ZM2.362,19.014L16.182,16.994L15.458,12.046L1.638,14.066L2.362,19.014ZM18.062,15.627L24.242,3.107L19.758,0.893L13.578,13.413L18.062,15.627Z" fill="#767676"/>
</svg>
