<svg width="78" height="68" viewBox="0 0 78 68" fill="none" xmlns="http://www.w3.org/2000/svg" xmlns:xlink="http://www.w3.org/1999/xlink">
<path d="M67.467,8.982L64.673,11.846L64.675,11.847L67.467,8.982ZM54.5,3.744L54.5,7.744L54.5,3.744ZM41.533,8.982L44.326,11.846L44.326,11.846L41.533,8.982ZM38,12.427L35.207,15.291C36.761,16.806 39.239,16.806 40.792,15.291L38,12.427ZM34.467,8.982L31.674,11.846L31.674,11.846L34.467,8.982ZM8.533,34.267L5.741,37.131L5.741,37.131L8.533,34.267ZM38,62.997L35.207,65.861C36.761,67.376 39.239,67.376 40.792,65.861L38,62.997ZM67.467,34.267L64.675,31.403L64.674,31.403L67.467,34.267ZM70.26,6.119C68.181,4.092 65.719,2.489 63.016,1.397L60.019,8.814C61.766,9.52 63.347,10.552 64.673,11.846L70.26,6.119ZM63.016,1.397C60.313,0.305 57.42,-0.256 54.5,-0.256L54.5,7.744C56.397,7.744 58.272,8.108 60.019,8.814L63.016,1.397ZM54.5,-0.256C51.58,-0.256 48.686,0.305 45.984,1.397L48.98,8.814C50.727,8.108 52.603,7.744 54.5,7.744L54.5,-0.256ZM45.984,1.397C43.281,2.489 40.818,4.092 38.74,6.119L44.326,11.846C45.653,10.552 47.233,9.52 48.98,8.814L45.984,1.397ZM38.741,6.118L35.207,9.563L40.792,15.291L44.326,11.846L38.741,6.118ZM40.792,9.563L37.259,6.118L31.674,11.846L35.207,15.291L40.792,9.563ZM37.259,6.118C33.062,2.027 27.392,-0.254 21.5,-0.254L21.5,7.746C25.335,7.746 28.993,9.232 31.674,11.846L37.259,6.118ZM21.5,-0.254C15.608,-0.254 9.937,2.027 5.741,6.118L11.325,11.846C14.007,9.232 17.665,7.746 21.5,7.746L21.5,-0.254ZM5.741,6.118C1.541,10.213 -0.838,15.789 -0.838,21.625L7.162,21.625C7.162,17.977 8.647,14.458 11.325,11.846L5.741,6.118ZM-0.838,21.625C-0.838,27.461 1.541,33.037 5.741,37.131L11.325,31.403C8.647,28.792 7.162,25.273 7.162,21.625L-0.838,21.625ZM70.258,37.132C72.338,35.105 73.993,32.694 75.124,30.032L67.762,26.903C67.049,28.579 66.002,30.11 64.675,31.403L70.258,37.132ZM75.124,30.032C76.256,27.37 76.839,24.513 76.839,21.625L68.839,21.625C68.839,23.433 68.474,25.226 67.762,26.903L75.124,30.032ZM76.839,21.625C76.839,18.737 76.256,15.88 75.124,13.218L67.762,16.347C68.474,18.023 68.839,19.817 68.839,21.625L76.839,21.625ZM75.124,13.218C73.993,10.556 72.338,8.144 70.258,6.118L64.675,11.847C66.002,13.14 67.049,14.67 67.762,16.347L75.124,13.218ZM5.741,37.131L35.207,65.861L40.792,60.133L11.325,31.403L5.741,37.131ZM40.792,65.861L70.259,37.131L64.674,31.403L35.207,60.133L40.792,65.861Z" fill="#FFFFFF"/>
</svg>
